<?xml version="1.0" encoding="UTF-8" standalone="no"?>
<!-- Created with Inkscape (http://www.inkscape.org/) -->
<svg width="400" height="400" version="1.1" viewBox="0 0 105.83 105.83299" xml:space="preserve" id="svg70" sodipodi:docname="logo.svg" inkscape:version="1.2.2 (b0a84865, 2022-12-01)" xmlns:inkscape="http://www.inkscape.org/namespaces/inkscape" xmlns:sodipodi="http://sodipodi.sourceforge.net/DTD/sodipodi-0.dtd" xmlns="http://www.w3.org/2000/svg" xmlns:svg="http://www.w3.org/2000/svg"><defs id="defs74"/><sodipodi:namedview id="namedview72" pagecolor="#ffffff" bordercolor="#000000" borderopacity="0.25" inkscape:showpageshadow="2" inkscape:pageopacity="0.0" inkscape:pagecheckerboard="0" inkscape:deskcolor="#d1d1d1" showgrid="false" inkscape:zoom="0.65148378" inkscape:cx="200.31197" inkscape:cy="181.89248" inkscape:window-width="2560" inkscape:window-height="1387" inkscape:window-x="0" inkscape:window-y="25" inkscape:window-maximized="1" inkscape:current-layer="svg70"/><g transform="matrix(0.713,0,0,0.713,77.074687,81.402662)" fill="none" stroke="#20b2aa" id="g68"><g transform="matrix(1.7758,0,0,1.7758,-218.04,-53.747)" id="g66"><g transform="matrix(1.0075,0,0,1.0075,-117.66,-102.15)" fill="none" stroke="#008000" id="g22"><g transform="translate(6.3294,21.625)" id="g20"><g transform="translate(2.2098,31.932)" id="g18"><g transform="translate(143.47,-53.536)" stroke="#20e0cd" id="g16"><path transform="translate(-2.2098,-31.932)" d="m 81.211,180.38 19.707,0.26372" stroke-width="3.683" id="path2"/><g transform="translate(-0.36252)" id="g10"><path d="m 89.544,146.87 v -6.794" stroke-width="2.6458" id="path4"/><path d="m 88.77,141.34 6.6272,-8.1886" stroke-width="2.3347" id="path6"/><path d="m 89.919,141.46 -5.5766,-5.8386" stroke-width="2.3102" id="path8"/></g><circle cx="100.95" cy="126.47" r="6.9136" stroke-width="2.6458" id="circle12"/><circle cx="79.350998" cy="130.39999" r="5.0854001" stroke-width="2.6458" id="circle14"/></g></g></g></g><g transform="matrix(1.4025,0,0,1.4025,78.297,-26.312)" fill="none" stroke="#2e8b57" id="g46"><circle cx="34.846001" cy="31.290001" r="3.9152" stroke-width="1.8521" id="circle24"/><circle cx="4.8413" cy="31.290001" r="3.9152" stroke-width="1.8521" id="circle26"/><path d="m 9.2604,52.775 h 21.167" stroke-width="2.6458" id="path28"/><path d="M 19.844,53.834 V 15.985" stroke-width="2.5838" id="path30"/><g stroke-width="2.6458" id="g38"><circle cx="19.844" cy="7.1851001" r="5.7389998" id="circle32"/><path d="m 6.6146,37.959 5.2917,5.2917 h 7.9375" id="path34"/><path d="m 33.073,37.959 -5.2917,5.2917 h -7.9375" id="path36"/></g><circle cx="31.804001" cy="17.056" r="3.9152" stroke-width="1.3229" id="circle40"/><circle cx="7.8839998" cy="17.056" r="3.9152" stroke-width="1.3229" id="circle42"/><path d="m 9.2604,23.406 10.583,2.6458 10.583,-2.6458" stroke-width="2.6458" id="path44"/></g><g transform="translate(61.911,-10.894)" id="g64"><path d="m 8.1887,58.6 h 23.31" stroke-width="3.7108" id="path48"/><g transform="translate(0,3.7438)" id="g62"><circle cx="33.971001" cy="33.263" r="4.79" stroke="#20b2aa" stroke-width="1.8527" id="circle50"/><circle cx="5.7160001" cy="33.263" r="4.79" stroke-width="1.8521" id="circle52"/><g stroke-width="2.6458" id="g60"><path d="M 19.844,53.743 V 27.847" id="path54"/><circle cx="19.844" cy="18.683001" r="7.0212002" id="circle56"/><path d="m 6.8958,40.795 12.948,3.237 12.948,-3.237" id="path58"/></g></g></g></g></g></svg>