<?xml version="1.0" encoding="UTF-8" standalone="no"?>
<!-- Uploaded to: SVG Repo, www.svgrepo.com, Generator: SVG Repo Mixer Tools -->

<svg
   width="800"
   height="800"
   viewBox="0 0 16 16"
   version="1.1"
   fill="none"
   stroke="#000000"
   stroke-linecap="round"
   stroke-linejoin="round"
   stroke-width="1.5"
   id="svg2"
   sodipodi:docname="favicon.svg"
   inkscape:export-filename="favicon.svg"
   inkscape:export-xdpi="96"
   inkscape:export-ydpi="96"
   xmlns:inkscape="http://www.inkscape.org/namespaces/inkscape"
   xmlns:sodipodi="http://sodipodi.sourceforge.net/DTD/sodipodi-0.dtd"
   xmlns="http://www.w3.org/2000/svg"
   xmlns:svg="http://www.w3.org/2000/svg">
  <defs
     id="defs2" />
  <sodipodi:namedview
     id="namedview2"
     pagecolor="#ffffff"
     bordercolor="#000000"
     borderopacity="0.25"
     inkscape:showpageshadow="2"
     inkscape:pageopacity="0.0"
     inkscape:pagecheckerboard="0"
     inkscape:deskcolor="#d1d1d1">
    <inkscape:page
       x="0"
       y="0"
       width="16"
       height="16"
       id="page2"
       margin="0"
       bleed="0" />
  </sodipodi:namedview>
  <rect
     style="opacity:1;fill:#ffffff;fill-opacity:1;stroke-width:0.00491338;paint-order:stroke markers fill"
     id="rect2"
     width="16"
     height="16"
     x="0"
     y="0"
     rx="3"
     ry="3" />
  <g
     id="g2"
     transform="translate(-0.25,0.75)">
    <path
       d="M 8.75,6.75 C 8.75,8 8,9.75 8,9.75 m 0.25,-2.5 c 0,0 0.75,-2 -1,-3.5 -1.75,-1.5 -4.5,-1 -4.5,-1 0,0 0,2 1.5,3.5 1.5,1.5 4,1 4,1 z m 0.5,-1 c 0,0 -0.75,-2 1,-3.5 1.75,-1.5 4.5,-1 4.5,-1 0,0 0,2 -1.5,3.5 -1.5,1.5 -4,1 -4,1 z"
       id="path1" />
    <path
       d="m 4.75,9.75 h 6.5 c 0,0 0.5,4.5 -3.25,4.5 -3.75,0 -3.25,-4.5 -3.25,-4.5 z"
       id="path2" />
  </g>
</svg>
