<?xml version="1.0" encoding="UTF-8" standalone="no"?>
<!-- Created with Inkscape (http://www.inkscape.org/) -->

<svg
   width="400"
   height="400"
   viewBox="0 0 105.83333 105.83333"
   version="1.1"
   id="svg1"
   xmlns="http://www.w3.org/2000/svg"
   xmlns:svg="http://www.w3.org/2000/svg">
  <defs
     id="defs1" />
  <g
     id="layer1">
    <path
       d="m 92.604167,13.229167 a 39.687496,39.687496 0 0 0 -30.867884,14.742252 26.458332,26.458332 0 0 0 -8.819616,-1.513086 26.458332,26.458332 0 0 0 -8.85424,1.553394 26.458332,26.458332 0 0 0 -3.194121,1.363224 26.458332,26.458332 0 0 0 -5.452897,3.698482 26.458332,26.458332 0 0 0 -2.342492,2.342493 26.458332,26.458332 0 0 0 -6.614584,17.500741 26.458332,26.458332 0 0 0 6.614584,17.50074 A 26.458332,26.458332 0 0 1 13.229167,79.375 26.458332,26.458332 0 0 1 0,75.829997 v 3.750675 a 29.765623,29.765623 0 0 0 13.229167,3.10162 29.765623,29.765623 0 0 0 22.186242,-9.922392 29.765623,29.765623 0 0 0 2.067058,-2.587439 23.151041,23.151041 0 0 1 -2.34456,-2.442745 23.151041,23.151041 0 0 1 -5.372282,-14.813049 23.151041,23.151041 0 0 1 5.372282,-14.81305 23.151041,23.151041 0 0 1 2.34456,-2.442745 23.151041,23.151041 0 0 1 5.472017,-3.59978 23.151041,23.151041 0 0 1 3.150195,-1.225765 23.151041,23.151041 0 0 1 6.811988,-1.069702 23.151041,23.151041 0 0 1 6.752559,1.006657 23.151041,23.151041 0 0 1 3.169316,1.227315 36.380199,36.380199 0 0 1 2.067057,-2.669088 36.380199,36.380199 0 0 1 27.698568,-12.794051 36.380199,36.380199 0 0 1 13.229163,2.490804 V 15.498796 A 39.687496,39.687496 0 0 0 92.604167,13.229167 Z"
       style="opacity:1;fill:#000000;fill-opacity:1;stroke-width:25;stroke-linecap:square;stroke-linejoin:round;paint-order:stroke fill markers"
       id="path33" />
    <path
       d="m 92.604167,23.151042 a 29.765625,29.765625 0 0 0 -22.160405,9.987504 29.765625,29.765625 0 0 0 -2.060856,2.565735 23.151041,23.151041 0 0 1 2.336808,2.442228 23.151041,23.151041 0 0 1 5.347994,14.770158 23.151041,23.151041 0 0 1 -5.347994,14.770158 23.151041,23.151041 0 0 1 -2.336808,2.442228 23.151041,23.151041 0 0 1 -5.544364,3.704683 23.151041,23.151041 0 0 1 -3.169316,1.227315 23.151041,23.151041 0 0 1 -6.752559,1.006657 23.151041,23.151041 0 0 1 -6.811988,-1.069702 23.151041,23.151041 0 0 1 -3.150195,-1.225765 36.380207,36.380207 0 0 1 -2.086178,2.686141 A 36.380207,36.380207 0 0 1 13.229167,89.296875 36.380207,36.380207 0 0 1 0,86.806071 v 3.528467 a 39.6875,39.6875 0 0 0 13.229167,2.269629 39.6875,39.6875 0 0 0 30.83326,-14.782561 26.458332,26.458332 0 0 0 8.85424,1.553394 26.458332,26.458332 0 0 0 8.819616,-1.513086 26.458332,26.458332 0 0 0 3.169316,-1.35909 26.458332,26.458332 0 0 0 5.538163,-3.808036 26.458332,26.458332 0 0 0 2.323889,-2.354379 A 26.458332,26.458332 0 0 0 79.375,52.916667 26.458332,26.458332 0 0 0 72.767651,35.492924 26.458332,26.458332 0 0 1 92.604167,26.458333 26.458332,26.458332 0 0 1 105.83333,30.00282 V 26.252661 A 29.765625,29.765625 0 0 0 92.604167,23.151042 Z m -39.6875,13.229166 a 16.536459,16.536459 0 0 0 -3.483509,0.410311 16.536459,16.536459 0 0 0 -3.187402,0.999422 16.536459,16.536459 0 0 0 -5.455998,3.884001 16.536459,16.536459 0 0 0 -2.372981,3.299023 16.536459,16.536459 0 0 0 -2.036569,7.943702 16.536459,16.536459 0 0 0 2.036569,7.943701 16.536459,16.536459 0 0 0 2.372981,3.299023 16.536459,16.536459 0 0 0 5.455998,3.884001 16.536459,16.536459 0 0 0 3.187402,0.999422 16.536459,16.536459 0 0 0 3.483509,0.410311 16.536459,16.536459 0 0 0 3.445267,-0.362769 16.536459,16.536459 0 0 0 3.169316,-1.018025 16.536459,16.536459 0 0 0 5.511808,-3.945496 16.536459,16.536459 0 0 0 2.370398,-3.28352 16.536459,16.536459 0 0 0 2.039669,-7.926648 16.536459,16.536459 0 0 0 -2.039669,-7.926648 16.536459,16.536459 0 0 0 -2.370398,-3.283004 16.536459,16.536459 0 0 0 -5.511808,-3.946012 16.536459,16.536459 0 0 0 -3.169316,-1.018026 16.536459,16.536459 0 0 0 -3.445267,-0.362769 z m 0,3.307292 a 13.229166,13.229166 0 0 1 2.205033,0.185002 13.229166,13.229166 0 0 1 3.169316,0.956014 13.229166,13.229166 0 0 1 5.515425,4.617289 13.229166,13.229166 0 0 1 2.339392,7.470862 13.229166,13.229166 0 0 1 -2.339392,7.470861 13.229166,13.229166 0 0 1 -5.515425,4.61729 13.229166,13.229166 0 0 1 -3.169316,0.956014 13.229166,13.229166 0 0 1 -2.205033,0.185001 13.229166,13.229166 0 0 1 -2.280481,-0.222725 13.229166,13.229166 0 0 1 -3.160531,-0.957048 13.229166,13.229166 0 0 1 -5.445662,-4.533056 13.229166,13.229166 0 0 1 -2.342493,-7.516337 13.229166,13.229166 0 0 1 2.342493,-7.516337 13.229166,13.229166 0 0 1 5.445662,-4.533057 13.229166,13.229166 0 0 1 3.160531,-0.957048 13.229166,13.229166 0 0 1 2.280481,-0.222725 z"
       style="opacity:1;fill:#000000;fill-opacity:1;stroke-width:25;stroke-linecap:square;stroke-linejoin:round;paint-order:stroke fill markers"
       id="path32" />
    <path
       d="m 6.3350146,3.0277226 a 16.536459,16.536459 0 0 0 -3.027723,0.279569 16.536459,16.536459 0 0 0 -0.279569,3.027723 16.536459,16.536459 0 0 0 0.00517,0.418579 16.536459,16.536459 0 0 0 16.1127114,16.1127114 16.536459,16.536459 0 0 0 0.418579,0.0052 16.536459,16.536459 0 0 0 3.027723,-0.279569 16.536459,16.536459 0 0 0 0.279569,-3.027723 16.536459,16.536459 0 0 0 -0.0052,-0.418579 A 16.536459,16.536459 0 0 0 6.7535936,3.0328902 16.536459,16.536459 0 0 0 6.3350146,3.0277226 Z m 0,3.307292 A 13.229166,13.229166 0 0 1 19.564181,19.564181 13.229166,13.229166 0 0 1 6.3350146,6.3350146 Z"
       style="opacity:1;fill:#000000;fill-opacity:1;stroke-width:25;stroke-linecap:square;stroke-linejoin:round;paint-order:stroke fill markers"
       id="path40" />
    <path
       d="m 85.989582,82.682289 a 16.536459,16.536459 0 0 0 -3.027723,0.279569 16.536459,16.536459 0 0 0 -0.279569,3.027724 16.536459,16.536459 0 0 0 0.0052,0.418578 16.536459,16.536459 0 0 0 16.112711,16.11271 16.536459,16.536459 0 0 0 0.418579,0.005 16.536459,16.536459 0 0 0 3.02772,-0.27957 16.536459,16.536459 0 0 0 0.27957,-3.027722 16.536459,16.536459 0 0 0 -0.005,-0.418579 16.536459,16.536459 0 0 0 -16.112679,-16.112743 16.536459,16.536459 0 0 0 -0.418579,-0.0052 z m 0,3.307293 A 13.229166,13.229166 0 0 1 99.218748,99.218747 13.229166,13.229166 0 0 1 85.989582,85.989582 Z"
       style="fill:#000000;fill-opacity:1;stroke-width:25;stroke-linecap:square;stroke-linejoin:round;paint-order:stroke fill markers"
       id="path40-3" />
    <path
       d="m 13.229167,59.53125 a 6.614583,6.614583 0 0 0 -6.6145837,6.614583 6.614583,6.614583 0 0 0 6.6145837,6.614584 6.614583,6.614583 0 0 0 6.614583,-6.614584 6.614583,6.614583 0 0 0 -6.614583,-6.614583 z m 0,1.653646 a 4.9609375,4.9609375 0 0 1 4.960937,4.960937 4.9609375,4.9609375 0 0 1 -4.960937,4.960938 4.9609375,4.9609375 0 0 1 -4.9609378,-4.960938 4.9609375,4.9609375 0 0 1 4.9609378,-4.960937 z"
       style="opacity:1;fill:#000000;stroke-width:25;stroke-linecap:square;stroke-linejoin:round;paint-order:stroke fill markers"
       id="path58" />
    <path
       d="M 92.604167,33.072917 A 6.614583,6.614583 0 0 0 85.989583,39.6875 6.614583,6.614583 0 0 0 92.604167,46.302083 6.614583,6.614583 0 0 0 99.21875,39.6875 6.614583,6.614583 0 0 0 92.604167,33.072917 Z m 0,1.653645 a 4.9609375,4.9609375 0 0 1 4.960937,4.960938 4.9609375,4.9609375 0 0 1 -4.960937,4.960937 4.9609375,4.9609375 0 0 1 -4.960938,-4.960937 4.9609375,4.9609375 0 0 1 4.960938,-4.960938 z"
       style="opacity:1;fill:#000000;stroke-width:25;stroke-linecap:square;stroke-linejoin:round;paint-order:stroke fill markers"
       id="path57" />
    <path
       d="m 59.53125,16.536458 a 3.3072915,3.3072915 0 0 0 -3.307292,3.307292 3.3072915,3.3072915 0 0 0 3.307292,3.307292 3.3072915,3.3072915 0 0 0 3.307292,-3.307292 3.3072915,3.3072915 0 0 0 -3.307292,-3.307292 z m 0,1.653646 a 1.6536458,1.6536458 0 0 1 1.653646,1.653646 1.6536458,1.6536458 0 0 1 -1.653646,1.653646 1.6536458,1.6536458 0 0 1 -1.653646,-1.653646 1.6536458,1.6536458 0 0 1 1.653646,-1.653646 z"
       style="opacity:1;fill:#000000;stroke-width:25;stroke-linecap:square;stroke-linejoin:round;paint-order:stroke fill markers"
       id="path56" />
    <path
       d="m 46.302083,82.682292 a 3.3072915,3.3072915 0 0 0 -3.307291,3.307291 3.3072915,3.3072915 0 0 0 3.307291,3.307292 3.3072915,3.3072915 0 0 0 3.307292,-3.307292 3.3072915,3.3072915 0 0 0 -3.307292,-3.307291 z m 0,1.653645 a 1.6536458,1.6536458 0 0 1 1.653646,1.653646 1.6536458,1.6536458 0 0 1 -1.653646,1.653646 1.6536458,1.6536458 0 0 1 -1.653646,-1.653646 1.6536458,1.6536458 0 0 1 1.653646,-1.653646 z"
       style="opacity:1;fill:#000000;stroke-width:25;stroke-linecap:square;stroke-linejoin:round;paint-order:stroke fill markers"
       id="path59" />
    <path
       style="opacity:1;fill:#000000;fill-opacity:1;stroke-width:25;stroke-linecap:square;stroke-linejoin:round;paint-order:stroke fill markers"
       d="M 19.843749,19.843749 C 36.380208,36.380208 36.380208,36.380208 36.380208,36.380208"
       id="path50" />
    <path
       style="opacity:1;fill:#000000;fill-opacity:1;stroke-width:25;stroke-linecap:square;stroke-linejoin:round;paint-order:stroke fill markers"
       d="m 24.83776,23.151042 -3.108854,-3.307293 h -1.885157 v 1.719792 l 14.882813,14.816667 1.653646,-1.653646 z"
       id="path51" />
    <path
       style="fill:#000000;fill-opacity:1;stroke-width:25;stroke-linecap:square;stroke-linejoin:round;paint-order:stroke fill markers"
       d="M 74.414061,72.760415 71.305207,69.453122 H 69.42005 v 1.719792 l 14.882813,14.816667 1.653646,-1.653646 z"
       id="path51-3" />
    <circle
       style="opacity:1;fill:#000000;fill-opacity:1;stroke-width:25;stroke-linecap:square;stroke-linejoin:round;paint-order:stroke fill markers"
       id="path60"
       cx="18.100828"
       cy="28.111979"
       r="3.3072913" />
    <circle
       style="fill:#000000;fill-opacity:1;stroke-width:25;stroke-linecap:square;stroke-linejoin:round;paint-order:stroke fill markers"
       id="path60-6"
       cx="28.111979"
       cy="18.190104"
       r="3.3072913" />
    <circle
       style="fill:#000000;fill-opacity:1;stroke-width:25;stroke-linecap:square;stroke-linejoin:round;paint-order:stroke fill markers"
       id="path60-2"
       cx="76.067703"
       cy="87.643227"
       r="3.3072913" />
    <circle
       style="fill:#000000;fill-opacity:1;stroke-width:25;stroke-linecap:square;stroke-linejoin:round;paint-order:stroke fill markers"
       id="path60-6-0"
       cx="87.643227"
       cy="76.067711"
       r="3.3072913" />
  </g>
</svg>
